<svg xmlns="http://www.w3.org/2000/svg" viewBox="0 0 1200 850" font-family="-apple-system,BlinkMacSystemFont,'Segoe UI',Helvetica,Arial,sans-serif">
  <defs>
    <marker id="arrow" markerWidth="8" markerHeight="6" refX="8" refY="3" orient="auto"><path d="M0,0 L8,3 L0,6" fill="#58a6ff"/></marker>
    <marker id="arrow-green" markerWidth="8" markerHeight="6" refX="8" refY="3" orient="auto"><path d="M0,0 L8,3 L0,6" fill="#3fb950"/></marker>
    <marker id="arrow-purple" markerWidth="8" markerHeight="6" refX="8" refY="3" orient="auto"><path d="M0,0 L8,3 L0,6" fill="#bc8cff"/></marker>
    <marker id="arrow-gold" markerWidth="8" markerHeight="6" refX="8" refY="3" orient="auto"><path d="M0,0 L8,3 L0,6" fill="#d29922"/></marker>
    <linearGradient id="bg-grad" x1="0" y1="0" x2="1" y2="1"><stop offset="0%" stop-color="#0d1117"/><stop offset="100%" stop-color="#161b22"/></linearGradient>
  </defs>

  <!-- Background -->
  <rect width="1200" height="850" fill="url(#bg-grad)" rx="16"/>
  <!-- Grid -->
  <pattern id="grid" width="40" height="40" patternUnits="userSpaceOnUse"><path d="M40,0 L0,0 0,40" fill="none" stroke="rgba(88,166,255,0.04)" stroke-width="1"/></pattern>
  <rect width="1200" height="850" fill="url(#grid)" rx="16"/>

  <!-- Title -->
  <text x="600" y="42" text-anchor="middle" fill="#e6edf3" font-size="18" font-weight="700" letter-spacing="2">CRYPTO INTELLIGENCE SYSTEM — ARCHITECTURE</text>
  <text x="600" y="60" text-anchor="middle" fill="#484f58" font-size="11" letter-spacing="1">v1.0 · 6 Agents · 7 Memory Files · 4 Chains</text>

  <!-- ===== ORCHESTRATOR (Center Top) ===== -->
  <rect x="440" y="80" width="320" height="50" rx="10" fill="#161b22" stroke="#58a6ff" stroke-width="2"/>
  <text x="600" y="110" text-anchor="middle" fill="#58a6ff" font-size="14" font-weight="700">ORCHESTRATOR</text>
  <text x="600" y="96" text-anchor="middle" fill="#484f58" font-size="9">SYSTEM_PROMPT.md</text>

  <!-- Phase Labels -->
  <text x="50" y="170" fill="#484f58" font-size="10" font-weight="600" letter-spacing="1">PHASE 1: PARALLEL SCAN</text>
  <text x="50" y="390" fill="#484f58" font-size="10" font-weight="600" letter-spacing="1">PHASE 2: VERIFY</text>
  <text x="50" y="530" fill="#484f58" font-size="10" font-weight="600" letter-spacing="1">PHASE 3: CALCULATE</text>

  <!-- ===== AGENTS (Phase 1: 1,3,4,5 parallel) ===== -->
  <!-- Agent 1: Social Intel -->
  <rect x="60" y="185" width="220" height="55" rx="8" fill="#161b22" stroke="#58a6ff" stroke-width="1.5"/>
  <text x="80" y="207" fill="#58a6ff" font-size="10" font-weight="700">01</text>
  <text x="100" y="207" fill="#e6edf3" font-size="12" font-weight="600">Social Intelligence</text>
  <text x="100" y="225" fill="#8b949e" font-size="10">X/Twitter · News · KOL Tracking</text>

  <!-- Agent 3: Smart Wallets -->
  <rect x="310" y="185" width="220" height="55" rx="8" fill="#161b22" stroke="#58a6ff" stroke-width="1.5"/>
  <text x="330" y="207" fill="#58a6ff" font-size="10" font-weight="700">03</text>
  <text x="350" y="207" fill="#e6edf3" font-size="12" font-weight="600">Smart Wallet Tracker</text>
  <text x="350" y="225" fill="#8b949e" font-size="10">Whales · Insiders · Convergence</text>

  <!-- Agent 4: Hyperliquid -->
  <rect x="560" y="185" width="220" height="55" rx="8" fill="#161b22" stroke="#58a6ff" stroke-width="1.5"/>
  <text x="580" y="207" fill="#58a6ff" font-size="10" font-weight="700">04</text>
  <text x="600" y="207" fill="#e6edf3" font-size="12" font-weight="600">Hyperliquid Monitor</text>
  <text x="600" y="225" fill="#8b949e" font-size="10">Leaderboard · Positions · Funding</text>

  <!-- Agent 5: Solana Trenches -->
  <rect x="810" y="185" width="220" height="55" rx="8" fill="#161b22" stroke="#58a6ff" stroke-width="1.5"/>
  <text x="830" y="207" fill="#58a6ff" font-size="10" font-weight="700">05</text>
  <text x="850" y="207" fill="#e6edf3" font-size="12" font-weight="600">Solana Trenches</text>
  <text x="850" y="225" fill="#8b949e" font-size="10">pump.fun · DexScreener · Early Stage</text>

  <!-- Arrows from orchestrator to agents -->
  <line x1="500" y1="130" x2="170" y2="185" stroke="#58a6ff" stroke-width="1" marker-end="url(#arrow)" opacity="0.6"/>
  <line x1="540" y1="130" x2="420" y2="185" stroke="#58a6ff" stroke-width="1" marker-end="url(#arrow)" opacity="0.6"/>
  <line x1="660" y1="130" x2="670" y2="185" stroke="#58a6ff" stroke-width="1" marker-end="url(#arrow)" opacity="0.6"/>
  <line x1="700" y1="130" x2="920" y2="185" stroke="#58a6ff" stroke-width="1" marker-end="url(#arrow)" opacity="0.6"/>

  <!-- Signal Aggregation Box -->
  <rect x="250" y="280" width="700" height="40" rx="8" fill="#161b22" stroke="#30363d" stroke-width="1" stroke-dasharray="6,3"/>
  <text x="600" y="305" text-anchor="middle" fill="#8b949e" font-size="12" font-weight="600">SIGNAL AGGREGATION &amp; CROSS-REFERENCE</text>

  <!-- Arrows from agents to aggregation -->
  <line x1="170" y1="240" x2="350" y2="280" stroke="#58a6ff" stroke-width="1" marker-end="url(#arrow)" opacity="0.4"/>
  <line x1="420" y1="240" x2="450" y2="280" stroke="#58a6ff" stroke-width="1" marker-end="url(#arrow)" opacity="0.4"/>
  <line x1="670" y1="240" x2="670" y2="280" stroke="#58a6ff" stroke-width="1" marker-end="url(#arrow)" opacity="0.4"/>
  <line x1="920" y1="240" x2="850" y2="280" stroke="#58a6ff" stroke-width="1" marker-end="url(#arrow)" opacity="0.4"/>

  <!-- ===== Agent 2: On-Chain Verification ===== -->
  <rect x="380" y="365" width="240" height="55" rx="8" fill="#161b22" stroke="#3fb950" stroke-width="2"/>
  <text x="400" y="387" fill="#3fb950" font-size="10" font-weight="700">02</text>
  <text x="420" y="387" fill="#e6edf3" font-size="12" font-weight="600">On-Chain Verification</text>
  <text x="420" y="405" fill="#8b949e" font-size="10">DexScreener · DeFiLlama · Explorers</text>

  <line x1="600" y1="320" x2="500" y2="365" stroke="#3fb950" stroke-width="1.5" marker-end="url(#arrow-green)"/>
  <text x="520" y="345" fill="#3fb950" font-size="9">verified signals</text>

  <!-- ===== Agent 6: EV Calculator ===== -->
  <rect x="700" y="365" width="240" height="55" rx="8" fill="#161b22" stroke="#d29922" stroke-width="2"/>
  <text x="720" y="387" fill="#d29922" font-size="10" font-weight="700">06</text>
  <text x="740" y="387" fill="#e6edf3" font-size="12" font-weight="600">EV Calculator</text>
  <text x="740" y="405" fill="#8b949e" font-size="10">3-Scenario Model · Kelly Criterion</text>

  <line x1="620" y1="392" x2="700" y2="392" stroke="#d29922" stroke-width="1.5" marker-end="url(#arrow-gold)"/>
  <text x="640" y="385" fill="#d29922" font-size="9">verified</text>

  <!-- ===== OUTPUT ===== -->
  <rect x="350" y="470" width="500" height="50" rx="10" fill="#161b22" stroke="#d29922" stroke-width="2"/>
  <text x="600" y="500" text-anchor="middle" fill="#d29922" font-size="14" font-weight="700">INTELLIGENCE BRIEFING + RECOMMENDATIONS</text>

  <line x1="500" y1="420" x2="520" y2="470" stroke="#d29922" stroke-width="1.5" marker-end="url(#arrow-gold)" opacity="0.6"/>
  <line x1="820" y1="420" x2="750" y2="470" stroke="#d29922" stroke-width="1.5" marker-end="url(#arrow-gold)" opacity="0.6"/>

  <!-- Output files -->
  <rect x="250" y="555" width="150" height="40" rx="6" fill="#21262d" stroke="#d29922" stroke-width="1"/>
  <text x="325" y="579" text-anchor="middle" fill="#d29922" font-size="11" font-weight="600">dashboard.html</text>

  <rect x="430" y="555" width="150" height="40" rx="6" fill="#21262d" stroke="#d29922" stroke-width="1"/>
  <text x="505" y="579" text-anchor="middle" fill="#d29922" font-size="11" font-weight="600">YYYY-MM-DD.md</text>

  <rect x="610" y="555" width="150" height="40" rx="6" fill="#21262d" stroke="#d29922" stroke-width="1"/>
  <text x="685" y="579" text-anchor="middle" fill="#d29922" font-size="11" font-weight="600">YYYY-MM-DD.html</text>

  <line x1="500" y1="520" x2="325" y2="555" stroke="#d29922" stroke-width="1" marker-end="url(#arrow-gold)" opacity="0.5"/>
  <line x1="600" y1="520" x2="505" y2="555" stroke="#d29922" stroke-width="1" marker-end="url(#arrow-gold)" opacity="0.5"/>
  <line x1="700" y1="520" x2="685" y2="555" stroke="#d29922" stroke-width="1" marker-end="url(#arrow-gold)" opacity="0.5"/>

  <!-- ===== MEMORY SYSTEM (Bottom Left) ===== -->
  <text x="100" y="640" fill="#bc8cff" font-size="11" font-weight="700" letter-spacing="1">MEMORY SYSTEM</text>
  <rect x="50" y="655" width="340" height="170" rx="10" fill="#161b22" stroke="#bc8cff" stroke-width="1.5" stroke-dasharray="4,2"/>

  <rect x="70" y="670" width="145" height="28" rx="4" fill="#21262d" stroke="#bc8cff" stroke-width="0.5"/>
  <text x="142" y="689" text-anchor="middle" fill="#bc8cff" font-size="10">daily_intel.json</text>

  <rect x="225" y="670" width="145" height="28" rx="4" fill="#21262d" stroke="#bc8cff" stroke-width="0.5"/>
  <text x="297" y="689" text-anchor="middle" fill="#bc8cff" font-size="10">predictions.json</text>

  <rect x="70" y="705" width="145" height="28" rx="4" fill="#21262d" stroke="#bc8cff" stroke-width="0.5"/>
  <text x="142" y="724" text-anchor="middle" fill="#bc8cff" font-size="10">track_record.json</text>

  <rect x="225" y="705" width="145" height="28" rx="4" fill="#21262d" stroke="#bc8cff" stroke-width="0.5"/>
  <text x="297" y="724" text-anchor="middle" fill="#bc8cff" font-size="10">smart_wallets.json</text>

  <rect x="70" y="740" width="145" height="28" rx="4" fill="#21262d" stroke="#bc8cff" stroke-width="0.5"/>
  <text x="142" y="759" text-anchor="middle" fill="#bc8cff" font-size="10">token_watchlist.json</text>

  <rect x="225" y="740" width="145" height="28" rx="4" fill="#21262d" stroke="#bc8cff" stroke-width="0.5"/>
  <text x="297" y="759" text-anchor="middle" fill="#bc8cff" font-size="10">alpha_signals.json</text>

  <rect x="145" y="775" width="150" height="28" rx="4" fill="#21262d" stroke="#bc8cff" stroke-width="0.5"/>
  <text x="220" y="794" text-anchor="middle" fill="#bc8cff" font-size="10">calibration.json</text>

  <!-- Memory arrows (bidirectional with orchestrator) -->
  <line x1="220" y1="655" x2="480" y2="130" stroke="#bc8cff" stroke-width="1" marker-end="url(#arrow-purple)" opacity="0.3" stroke-dasharray="4,2"/>

  <!-- ===== DATA SOURCES (Bottom Right) ===== -->
  <text x="520" y="640" fill="#3fb950" font-size="11" font-weight="700" letter-spacing="1">EXTERNAL DATA SOURCES</text>
  <rect x="470" y="655" width="700" height="170" rx="10" fill="#161b22" stroke="#3fb950" stroke-width="1.5" stroke-dasharray="4,2"/>

  <!-- Social -->
  <text x="500" y="680" fill="#8b949e" font-size="9" font-weight="600" letter-spacing="1">SOCIAL</text>
  <rect x="490" y="688" width="110" height="24" rx="4" fill="#21262d"/><text x="545" y="705" text-anchor="middle" fill="#3fb950" font-size="10">X / Twitter</text>
  <rect x="608" y="688" width="110" height="24" rx="4" fill="#21262d"/><text x="663" y="705" text-anchor="middle" fill="#3fb950" font-size="10">Crypto News</text>

  <!-- On-Chain -->
  <text x="500" y="730" fill="#8b949e" font-size="9" font-weight="600" letter-spacing="1">ON-CHAIN</text>
  <rect x="490" y="738" width="90" height="24" rx="4" fill="#21262d"/><text x="535" y="755" text-anchor="middle" fill="#3fb950" font-size="9">DexScreener</text>
  <rect x="588" y="738" width="90" height="24" rx="4" fill="#21262d"/><text x="633" y="755" text-anchor="middle" fill="#3fb950" font-size="9">DeFiLlama</text>
  <rect x="686" y="738" width="80" height="24" rx="4" fill="#21262d"/><text x="726" y="755" text-anchor="middle" fill="#3fb950" font-size="9">CoinGecko</text>
  <rect x="774" y="738" width="80" height="24" rx="4" fill="#21262d"/><text x="814" y="755" text-anchor="middle" fill="#3fb950" font-size="9">Solscan</text>
  <rect x="862" y="738" width="80" height="24" rx="4" fill="#21262d"/><text x="902" y="755" text-anchor="middle" fill="#3fb950" font-size="9">Etherscan</text>

  <!-- Trading -->
  <text x="500" y="780" fill="#8b949e" font-size="9" font-weight="600" letter-spacing="1">TRADING</text>
  <rect x="490" y="788" width="110" height="24" rx="4" fill="#21262d"/><text x="545" y="805" text-anchor="middle" fill="#3fb950" font-size="9">Hyperliquid API</text>
  <rect x="608" y="788" width="100" height="24" rx="4" fill="#21262d"/><text x="658" y="805" text-anchor="middle" fill="#3fb950" font-size="9">Hypurrscan</text>
  <rect x="716" y="788" width="90" height="24" rx="4" fill="#21262d"/><text x="761" y="805" text-anchor="middle" fill="#3fb950" font-size="9">Kolscan</text>
  <rect x="814" y="788" width="90" height="24" rx="4" fill="#21262d"/><text x="859" y="805" text-anchor="middle" fill="#3fb950" font-size="9">pump.fun</text>

  <!-- Legend -->
  <rect x="950" y="655" width="200" height="100" rx="6" fill="#0d1117" stroke="#30363d" stroke-width="1"/>
  <text x="970" y="675" fill="#484f58" font-size="9" font-weight="600" letter-spacing="1">LEGEND</text>
  <rect x="970" y="685" width="10" height="10" rx="2" fill="#58a6ff"/><text x="988" y="694" fill="#8b949e" font-size="10">Agents</text>
  <rect x="970" y="703" width="10" height="10" rx="2" fill="#3fb950"/><text x="988" y="712" fill="#8b949e" font-size="10">Verification / Data</text>
  <rect x="970" y="721" width="10" height="10" rx="2" fill="#bc8cff"/><text x="988" y="730" fill="#8b949e" font-size="10">Memory System</text>
  <rect x="970" y="739" width="10" height="10" rx="2" fill="#d29922"/><text x="988" y="748" fill="#8b949e" font-size="10">Output / Briefing</text>
</svg>
